<svg xmlns="http://www.w3.org/2000/svg" width="400" height="80" viewBox="0 0 400 80" role="img" aria-label="中广核 CGN logo (reconstructed)">
  <rect width="400" height="80" fill="white"/>
  <g transform="translate(14,11)">
    <path d="M34 4C22 5 11 15 8 27c-2 7-1 14 2 20 4 7 10 11 18 13-5-4-9-9-11-15-2-7-1-14 2-20 4-8 12-15 21-18-1 0-2 0-3 0-1 0-2 0-4 0z" fill="#F28C28"/>
    <path d="M56 8c-7 3-12 9-15 16-4 8-4 17-1 26 2 6 6 11 11 15 8-2 15-7 20-14 6-9 8-20 5-31-2-5-5-9-9-12-3 0-7 0-11 0z" fill="#F28C28"/>
    <path d="M49 17c8 3 14 8 18 15 4 8 5 17 3 25 7-7 11-16 11-26 0-8-3-16-8-22-5 3-10 6-16 8-3 1-5 1-8 0z" fill="#F28C28"/>
  </g>
  <g fill="#58595B">
    <text x="108" y="34" font-size="24" font-family="'Noto Sans SC','Microsoft YaHei','PingFang SC',sans-serif" letter-spacing="1">中广核</text>
    <text x="108" y="62" font-size="22" font-family="Arial, Helvetica, sans-serif" font-style="italic" font-weight="700" letter-spacing="1">CGN</text>
  </g>
</svg>
